<?xml version="1.0" standalone="no"?>
<!DOCTYPE svg PUBLIC "-//W3C//DTD SVG 20010904//EN"
 "http://www.w3.org/TR/2001/REC-SVG-20010904/DTD/svg10.dtd">
<svg version="1.0" xmlns="http://www.w3.org/2000/svg"
 width="300.000000pt" height="300.000000pt" viewBox="0 0 300.000000 300.000000"
 preserveAspectRatio="xMidYMid meet">
<metadata>
Created by potrace 1.11, written by Peter Selinger 2001-2013
</metadata>
<g transform="translate(0.000000,300.000000) scale(0.100000,-0.100000)"
fill="#000000" stroke="none">
<path d="M1097 2883 c-2 -2 114 -122 259 -267 145 -145 264 -265 264 -268 0
-3 -206 -5 -457 -6 -252 0 -465 -1 -474 -1 -15 -1 -16 -27 -17 -236 l0 -235
206 -2 207 -3 1 -540 c0 -297 4 -553 7 -570 4 -16 9 -46 12 -65 3 -19 15 -64
26 -100 80 -253 281 -426 541 -467 65 -10 296 -10 362 0 98 15 267 63 295 83
3 2 -49 169 -66 214 -4 8 -7 17 -8 20 -19 67 -69 217 -75 223 -3 4 -38 -4 -76
-19 -94 -35 -234 -44 -300 -19 -77 29 -137 96 -162 179 -3 11 -8 256 -9 544
l-4 522 306 0 c237 0 305 3 306 13 4 59 1 449 -4 454 -4 3 -141 6 -306 6
l-299 0 0 256 c0 141 -1 263 -1 273 -1 15 -26 16 -266 16 -145 0 -266 -2 -268
-5z"/>
</g>
</svg>
